<svg xmlns="http://www.w3.org/2000/svg" width="110" height="35" viewBox="0 0 110 35">
  <rect width="110" height="35" rx="5" fill="#0077B5" />
  <svg x="10" y="5.5" width="24" height="24" viewBox="0 0 256 256">
    <path fill="white" d="M216,24H40A16,16,0,0,0,24,40V216a16,16,0,0,0,16,16H216a16,16,0,0,0,16-16V40A16,16,0,0,0,216,24Zm0,192H40V40H216V216ZM96,112v64a8,8,0,0,1-16,0V112a8,8,0,0,1,16,0Zm88,28v36a8,8,0,0,1-16,0V140a20,20,0,0,0-40,0v36a8,8,0,0,1-16,0V112a8,8,0,0,1,15.79-1.78A36,36,0,0,1,184,140ZM100,84A12,12,0,1,1,88,72,12,12,0,0,1,100,84Z"></path>
  </svg>
  <text x="40" y="23" font-family="Arial, sans-serif" font-size="14" font-weight="bold" fill="white">LinkedIn</text>
</svg>
